<svg width="257" height="37" viewBox="0 0 257 37" fill="none" xmlns="http://www.w3.org/2000/svg">
<path d="M256.226 8.62889C256.576 7.87838 256.25 6.98565 255.499 6.63491L243.257 0.919367C242.505 0.568632 241.613 0.892715 241.264 1.64323C240.915 2.39374 241.241 3.28647 241.992 3.6372L252.874 8.71769L247.815 19.589C247.466 20.3396 247.792 21.2323 248.543 21.583C249.294 21.9338 250.186 21.6097 250.535 20.8592L256.226 8.62889ZM4.33587 13.312C5.11547 13.5938 5.97463 13.1907 6.25485 12.4117C6.53508 11.6327 6.13025 10.7727 5.35065 10.4909L4.33587 13.312ZM13.0015 13.1909C12.2176 12.9211 11.3648 13.3375 11.0967 14.1207C10.8285 14.904 11.2465 15.7576 12.0304 16.0274L13.0015 13.1909ZM19.7693 18.619C20.5575 18.8755 21.4032 18.4449 21.6581 17.6572C21.913 16.8695 21.4807 16.023 20.6925 15.7665L19.7693 18.619ZM28.425 18.2063C27.6322 17.9642 26.7946 18.4101 26.5541 19.2024C26.3136 19.9946 26.7612 20.8332 27.554 21.0753L28.425 18.2063ZM35.3853 23.3842C36.1826 23.6107 37.0113 23.1484 37.2362 22.3515C37.4611 21.5547 36.997 20.7251 36.1997 20.4986L35.3853 23.3842ZM44.0169 22.6316C43.215 22.422 42.3963 22.9017 42.1883 23.7031C41.9802 24.5046 42.4616 25.3243 43.2634 25.5339L44.0169 22.6316ZM51.1879 27.5125C51.9942 27.7042 52.802 27.2062 52.992 26.4003C53.1821 25.5944 52.6825 24.7856 51.8762 24.594L51.1879 27.5125ZM59.7763 26.3744C58.9657 26.2018 58.17 26.7188 57.9991 27.529C57.8282 28.3393 58.3468 29.136 59.1574 29.3085L59.7763 26.3744ZM67.1697 30.9112C67.9843 31.0636 68.7669 30.527 68.9176 29.7127C69.0683 28.8984 68.5302 28.1148 67.7156 27.9624L67.1697 30.9112ZM75.692 29.3486C74.8738 29.2173 74.1054 29.774 73.9758 30.592C73.8462 31.4099 74.4044 32.1794 75.2226 32.3106L75.692 29.3486ZM83.3103 33.4979C84.1318 33.6072 84.8849 33.0302 84.9926 32.209C85.1003 31.3878 84.5217 30.6335 83.7003 30.5242L83.3103 33.4979ZM91.7352 31.4821C90.9111 31.3953 90.1741 31.9929 90.089 32.8167C90.0039 33.6406 90.6029 34.3788 91.427 34.4656L91.7352 31.4821ZM99.5671 35.2083C100.393 35.2721 101.113 34.6542 101.175 33.8282C101.237 33.0022 100.618 32.281 99.7919 32.2172L99.5671 35.2083ZM107.865 32.7261C107.037 32.6856 106.335 33.3236 106.296 34.151C106.258 34.9784 106.897 35.682 107.725 35.7224L107.865 32.7261ZM115.893 36.0063C116.721 36.0234 117.405 35.3658 117.421 34.5376C117.436 33.7094 116.777 33.0241 115.949 33.007L115.893 36.0063ZM124.038 33.0603C123.209 33.0664 122.544 33.7429 122.552 34.5713C122.56 35.3997 123.237 36.0663 124.066 36.0602L124.038 33.0603ZM132.236 35.8861C133.064 35.8571 133.711 35.1623 133.68 34.3344C133.649 33.5065 132.953 32.8589 132.125 32.888L132.236 35.8861ZM140.206 32.4939C139.379 32.5455 138.752 33.2575 138.805 34.0843C138.858 34.9111 139.572 35.5396 140.398 35.4881L140.206 32.4939ZM148.545 34.8715C149.37 34.7981 149.978 34.0697 149.903 33.2445C149.828 32.4194 149.098 31.8099 148.273 31.8833L148.545 34.8715ZM156.323 31.0627C155.5 31.1572 154.911 31.901 155.007 32.724C155.104 33.547 155.849 34.1376 156.671 34.0431L156.323 31.0627ZM164.772 33.0108C165.592 32.8961 166.163 32.138 166.046 31.3175C165.93 30.4971 165.171 29.925 164.35 30.0398L164.772 33.0108ZM172.351 28.8229C171.534 28.957 170.981 29.7285 171.117 30.546C171.253 31.3635 172.026 31.9174 172.843 31.7833L172.351 28.8229ZM180.881 30.3696C181.695 30.217 182.229 29.4332 182.075 28.619C181.921 27.8047 181.136 27.2684 180.322 27.421L180.881 30.3696ZM188.261 25.8432C187.45 26.0133 186.933 26.8084 187.104 27.6192C187.276 28.43 188.072 28.9493 188.883 28.7792L188.261 25.8432ZM196.848 27.0217C197.654 26.835 198.156 26.0295 197.968 25.2223C197.779 24.4152 196.973 23.9122 196.166 24.0988L196.848 27.0217ZM204.037 22.1969C203.234 22.3991 202.748 23.2143 202.952 24.0176C203.156 24.821 203.972 25.3083 204.775 25.1061L204.037 22.1969ZM212.665 23.0415C213.464 22.8247 213.935 22.0007 213.716 21.2012C213.498 20.4017 212.673 19.9293 211.874 20.1462L212.665 23.0415ZM219.677 17.955C218.882 18.1857 218.426 19.0177 218.658 19.8133C218.89 20.609 219.723 21.067 220.518 20.8364L219.677 17.955ZM228.337 18.4985C229.129 18.2549 229.572 17.4156 229.326 16.6238C229.081 15.832 228.241 15.3875 227.45 15.6311L228.337 18.4985ZM235.187 13.1836C234.4 13.4393 233.97 14.2853 234.227 15.0733C234.484 15.8613 235.331 16.2928 236.119 16.0371L235.187 13.1836ZM243.834 13.4696C244.618 13.2026 245.036 12.3505 244.767 11.5663C244.498 10.782 243.645 10.3628 242.862 10.6298L243.834 13.4696ZM250.507 7.96644C249.727 8.24403 249.321 9.10181 249.6 9.88234C249.879 10.6629 250.738 11.0706 251.518 10.793L250.507 7.96644ZM0.49119 11.9065C1.77553 12.3813 3.05703 12.8498 4.33587 13.312L5.35065 10.4909C4.07875 10.0312 2.80405 9.56516 1.52636 9.09288L0.49119 11.9065ZM12.0304 16.0274C14.6191 16.9182 17.1982 17.7823 19.7693 18.619L20.6925 15.7665C18.138 14.9352 15.5748 14.0764 13.0015 13.1909L12.0304 16.0274ZM27.554 21.0753C30.1707 21.8744 32.7806 22.6443 35.3853 23.3842L36.1997 20.4986C33.6145 19.7642 31.0235 18.9999 28.425 18.2063L27.554 21.0753ZM43.2634 25.5339C45.9081 26.2255 48.549 26.8852 51.1879 27.5125L51.8762 24.594C49.2596 23.972 46.6404 23.3176 44.0169 22.6316L43.2634 25.5339ZM59.1574 29.3085C61.8279 29.877 64.498 30.4114 67.1697 30.9112L67.7156 27.9624C65.0688 27.4673 62.423 26.9378 59.7763 26.3744L59.1574 29.3085ZM75.2226 32.3106C77.9147 32.7425 80.61 33.1385 83.3103 33.4979L83.7003 30.5242C81.0268 30.1683 78.358 29.7762 75.692 29.3486L75.2226 32.3106ZM91.427 34.4656C94.133 34.7505 96.8457 34.9983 99.5671 35.2083L99.7919 32.2172C97.0986 32.0094 94.4136 31.7641 91.7352 31.4821L91.427 34.4656ZM107.725 35.7224C110.437 35.855 113.159 35.9499 115.893 36.0063L115.949 33.007C113.243 32.9511 110.549 32.8573 107.865 32.7261L107.725 35.7224ZM124.066 36.0602C126.776 36.0401 129.499 35.9823 132.236 35.8861L132.125 32.888C129.415 32.9832 126.72 33.0404 124.038 33.0603L124.066 36.0602ZM140.398 35.4881C143.098 35.3198 145.813 35.1145 148.545 34.8715L148.273 31.8833C145.567 32.124 142.879 32.3273 140.206 32.4939L140.398 35.4881ZM156.671 34.0431C159.354 33.7351 162.054 33.3912 164.772 33.0108L164.35 30.0398C161.656 30.4168 158.981 30.7576 156.323 31.0627L156.671 34.0431ZM172.843 31.7833C175.503 31.3466 178.182 30.8756 180.881 30.3696L180.322 27.421C177.645 27.9228 174.989 28.39 172.351 28.8229L172.843 31.7833ZM188.883 28.7792C191.518 28.2262 194.172 27.6405 196.848 27.0217L196.166 24.0988C193.51 24.7131 190.876 25.2944 188.261 25.8432L188.883 28.7792ZM204.775 25.1061C207.384 24.449 210.014 23.7609 212.665 23.0415L211.874 20.1462C209.24 20.8609 206.628 21.5443 204.037 22.1969L204.775 25.1061ZM220.518 20.8364C223.104 20.0864 225.71 19.3072 228.337 18.4985L227.45 15.6311C224.837 16.4352 222.247 17.2097 219.677 17.955L220.518 20.8364ZM236.119 16.0371C238.67 15.2086 241.242 14.3529 243.834 13.4696L242.862 10.6298C240.282 11.5085 237.725 12.3597 235.187 13.1836L236.119 16.0371ZM251.518 10.793C252.8 10.3365 254.088 9.87347 255.381 9.40379L254.352 6.58388C253.065 7.05135 251.783 7.5122 250.507 7.96644L251.518 10.793ZM256.226 8.62889C256.576 7.87838 256.25 6.98565 255.499 6.63491L243.257 0.919367C242.505 0.568632 241.613 0.892715 241.264 1.64323C240.915 2.39374 241.241 3.28647 241.992 3.6372L252.874 8.71769L247.815 19.589C247.466 20.3396 247.792 21.2323 248.543 21.583C249.294 21.9338 250.186 21.6097 250.535 20.8592L256.226 8.62889ZM4.33587 13.312C5.11547 13.5938 5.97463 13.1907 6.25485 12.4117C6.53508 11.6327 6.13025 10.7727 5.35065 10.4909L4.33587 13.312ZM13.0015 13.1909C12.2176 12.9211 11.3648 13.3375 11.0967 14.1207C10.8285 14.904 11.2465 15.7576 12.0304 16.0274L13.0015 13.1909ZM19.7693 18.619C20.5575 18.8755 21.4032 18.4449 21.6581 17.6572C21.913 16.8695 21.4807 16.023 20.6925 15.7665L19.7693 18.619ZM28.425 18.2063C27.6322 17.9642 26.7946 18.4101 26.5541 19.2024C26.3136 19.9946 26.7612 20.8332 27.554 21.0753L28.425 18.2063ZM35.3853 23.3842C36.1826 23.6107 37.0113 23.1484 37.2362 22.3515C37.4611 21.5547 36.997 20.7251 36.1997 20.4986L35.3853 23.3842ZM44.0169 22.6316C43.215 22.422 42.3963 22.9017 42.1883 23.7031C41.9802 24.5046 42.4616 25.3243 43.2634 25.5339L44.0169 22.6316ZM51.1879 27.5125C51.9942 27.7042 52.802 27.2062 52.992 26.4003C53.1821 25.5944 52.6825 24.7856 51.8762 24.594L51.1879 27.5125ZM59.7763 26.3744C58.9657 26.2018 58.17 26.7188 57.9991 27.529C57.8282 28.3393 58.3468 29.136 59.1574 29.3085L59.7763 26.3744ZM67.1697 30.9112C67.9843 31.0636 68.7669 30.527 68.9176 29.7127C69.0683 28.8984 68.5302 28.1148 67.7156 27.9624L67.1697 30.9112ZM75.692 29.3486C74.8738 29.2173 74.1054 29.774 73.9758 30.592C73.8462 31.4099 74.4044 32.1794 75.2226 32.3106L75.692 29.3486ZM83.3103 33.4979C84.1318 33.6072 84.8849 33.0302 84.9926 32.209C85.1003 31.3878 84.5217 30.6335 83.7003 30.5242L83.3103 33.4979ZM91.7352 31.4821C90.9111 31.3953 90.1741 31.9929 90.089 32.8167C90.0039 33.6406 90.6029 34.3788 91.427 34.4656L91.7352 31.4821ZM99.5671 35.2083C100.393 35.2721 101.113 34.6542 101.175 33.8282C101.237 33.0022 100.618 32.281 99.7919 32.2172L99.5671 35.2083ZM107.865 32.7261C107.037 32.6856 106.335 33.3236 106.296 34.151C106.258 34.9784 106.897 35.682 107.725 35.7224L107.865 32.7261ZM115.893 36.0063C116.721 36.0234 117.405 35.3658 117.421 34.5376C117.436 33.7094 116.777 33.0241 115.949 33.007L115.893 36.0063ZM124.038 33.0603C123.209 33.0664 122.544 33.7429 122.552 34.5713C122.56 35.3997 123.237 36.0663 124.066 36.0602L124.038 33.0603ZM132.236 35.8861C133.064 35.8571 133.711 35.1623 133.68 34.3344C133.649 33.5065 132.953 32.8589 132.125 32.888L132.236 35.8861ZM140.206 32.4939C139.379 32.5455 138.752 33.2575 138.805 34.0843C138.858 34.9111 139.572 35.5396 140.398 35.4881L140.206 32.4939ZM148.545 34.8715C149.37 34.7981 149.978 34.0697 149.903 33.2445C149.828 32.4194 149.098 31.8099 148.273 31.8833L148.545 34.8715ZM156.323 31.0627C155.5 31.1572 154.911 31.901 155.007 32.724C155.104 33.547 155.849 34.1376 156.671 34.0431L156.323 31.0627ZM164.772 33.0108C165.592 32.8961 166.163 32.138 166.046 31.3175C165.93 30.4971 165.171 29.925 164.35 30.0398L164.772 33.0108ZM172.351 28.8229C171.534 28.957 170.981 29.7285 171.117 30.546C171.253 31.3635 172.026 31.9174 172.843 31.7833L172.351 28.8229ZM180.881 30.3696C181.695 30.217 182.229 29.4332 182.075 28.619C181.921 27.8047 181.136 27.2684 180.322 27.421L180.881 30.3696ZM188.261 25.8432C187.45 26.0133 186.933 26.8084 187.104 27.6192C187.276 28.43 188.072 28.9493 188.883 28.7792L188.261 25.8432ZM196.848 27.0217C197.654 26.835 198.156 26.0295 197.968 25.2223C197.779 24.4152 196.973 23.9122 196.166 24.0988L196.848 27.0217ZM204.037 22.1969C203.234 22.3991 202.748 23.2143 202.952 24.0176C203.156 24.821 203.972 25.3083 204.775 25.1061L204.037 22.1969ZM212.665 23.0415C213.464 22.8247 213.935 22.0007 213.716 21.2012C213.498 20.4017 212.673 19.9293 211.874 20.1462L212.665 23.0415ZM219.677 17.955C218.882 18.1857 218.426 19.0177 218.658 19.8133C218.89 20.609 219.723 21.067 220.518 20.8364L219.677 17.955ZM228.337 18.4985C229.129 18.2549 229.572 17.4156 229.326 16.6238C229.081 15.832 228.241 15.3875 227.45 15.6311L228.337 18.4985ZM235.187 13.1836C234.4 13.4393 233.97 14.2853 234.227 15.0733C234.484 15.8613 235.331 16.2928 236.119 16.0371L235.187 13.1836ZM243.834 13.4696C244.618 13.2026 245.036 12.3505 244.767 11.5663C244.498 10.782 243.645 10.3628 242.862 10.6298L243.834 13.4696ZM250.507 7.96644C249.727 8.24403 249.321 9.10181 249.6 9.88234C249.879 10.6629 250.738 11.0706 251.518 10.793L250.507 7.96644ZM0.49119 11.9065C1.77553 12.3813 3.05703 12.8498 4.33587 13.312L5.35065 10.4909C4.07875 10.0312 2.80405 9.56516 1.52636 9.09288L0.49119 11.9065ZM12.0304 16.0274C14.6191 16.9182 17.1982 17.7823 19.7693 18.619L20.6925 15.7665C18.138 14.9352 15.5748 14.0764 13.0015 13.1909L12.0304 16.0274ZM27.554 21.0753C30.1707 21.8744 32.7806 22.6443 35.3853 23.3842L36.1997 20.4986C33.6145 19.7642 31.0235 18.9999 28.425 18.2063L27.554 21.0753ZM43.2634 25.5339C45.9081 26.2255 48.549 26.8852 51.1879 27.5125L51.8762 24.594C49.2596 23.972 46.6404 23.3176 44.0169 22.6316L43.2634 25.5339ZM59.1574 29.3085C61.8279 29.877 64.498 30.4114 67.1697 30.9112L67.7156 27.9624C65.0688 27.4673 62.423 26.9378 59.7763 26.3744L59.1574 29.3085ZM75.2226 32.3106C77.9147 32.7425 80.61 33.1385 83.3103 33.4979L83.7003 30.5242C81.0268 30.1683 78.358 29.7762 75.692 29.3486L75.2226 32.3106ZM91.427 34.4656C94.133 34.7505 96.8457 34.9983 99.5671 35.2083L99.7919 32.2172C97.0986 32.0094 94.4136 31.7641 91.7352 31.4821L91.427 34.4656ZM107.725 35.7224C110.437 35.855 113.159 35.9499 115.893 36.0063L115.949 33.007C113.243 32.9511 110.549 32.8573 107.865 32.7261L107.725 35.7224ZM124.066 36.0602C126.776 36.0401 129.499 35.9823 132.236 35.8861L132.125 32.888C129.415 32.9832 126.72 33.0404 124.038 33.0603L124.066 36.0602ZM140.398 35.4881C143.098 35.3198 145.813 35.1145 148.545 34.8715L148.273 31.8833C145.567 32.124 142.879 32.3273 140.206 32.4939L140.398 35.4881ZM156.671 34.0431C159.354 33.7351 162.054 33.3912 164.772 33.0108L164.35 30.0398C161.656 30.4168 158.981 30.7576 156.323 31.0627L156.671 34.0431ZM172.843 31.7833C175.503 31.3466 178.182 30.8756 180.881 30.3696L180.322 27.421C177.645 27.9228 174.989 28.39 172.351 28.8229L172.843 31.7833ZM188.883 28.7792C191.518 28.2262 194.172 27.6405 196.848 27.0217L196.166 24.0988C193.51 24.7131 190.876 25.2944 188.261 25.8432L188.883 28.7792ZM204.775 25.1061C207.384 24.449 210.014 23.7609 212.665 23.0415L211.874 20.1462C209.24 20.8609 206.628 21.5443 204.037 22.1969L204.775 25.1061ZM220.518 20.8364C223.104 20.0864 225.71 19.3072 228.337 18.4985L227.45 15.6311C224.837 16.4352 222.247 17.2097 219.677 17.955L220.518 20.8364ZM236.119 16.0371C238.67 15.2086 241.242 14.3529 243.834 13.4696L242.862 10.6298C240.282 11.5085 237.725 12.3597 235.187 13.1836L236.119 16.0371ZM251.518 10.793C252.8 10.3365 254.088 9.87347 255.381 9.40379L254.352 6.58388C253.065 7.05135 251.783 7.5122 250.507 7.96644L251.518 10.793Z" fill="#86928E"/>
</svg>
