<svg width="256" height="34" viewBox="0 0 256 34" fill="none" xmlns="http://www.w3.org/2000/svg">
<path d="M254.624 27.6452C255.377 27.3006 255.709 26.4105 255.364 25.6571L249.748 13.3807C249.404 12.6273 248.513 12.296 247.76 12.6406C247.007 12.9852 246.675 13.8753 247.02 14.6287L252.012 25.5411L241.1 30.533C240.346 30.8776 240.015 31.7677 240.359 32.521C240.704 33.2744 241.594 33.6057 242.348 33.2611L254.624 27.6452ZM250.698 23.467C249.92 23.1836 249.059 23.5849 248.775 24.3633C248.492 25.1418 248.893 26.0026 249.672 26.286L250.698 23.467ZM242.059 23.5798C242.842 23.8512 243.697 23.4366 243.968 22.6539C244.239 21.8712 243.825 21.0167 243.042 20.7453L242.059 23.5798ZM235.341 18.1466C234.554 17.8884 233.707 18.3172 233.449 19.1043C233.19 19.8915 233.619 20.7389 234.406 20.9971L235.341 18.1466ZM226.712 18.5494C227.503 18.7932 228.343 18.3491 228.587 17.5574C228.831 16.7656 228.387 15.9261 227.595 15.6823L226.712 18.5494ZM219.801 13.3644C219.005 13.1361 218.174 13.5966 217.946 14.393C217.718 15.1893 218.178 16.0199 218.974 16.2482L219.801 13.3644ZM211.194 14.1052C211.995 14.3167 212.816 13.8388 213.028 13.0379C213.239 12.2369 212.761 11.4161 211.96 11.2046L211.194 14.1052ZM204.073 9.21482C203.267 9.02126 202.457 9.51733 202.264 10.3228C202.07 11.1283 202.566 11.9382 203.372 12.1318L204.073 9.21482ZM195.507 10.3391C196.317 10.5136 197.115 9.99851 197.29 9.18867C197.464 8.37883 196.949 7.58086 196.139 7.40636L195.507 10.3391ZM188.163 5.78997C187.349 5.63558 186.564 6.17023 186.409 6.98414C186.255 7.79806 186.79 8.58302 187.604 8.73741L188.163 5.78997ZM179.662 7.33623C180.48 7.46956 181.251 6.91484 181.384 6.09721C181.517 5.27959 180.962 4.50868 180.145 4.37534L179.662 7.33623ZM172.091 3.17148C171.271 3.05999 170.515 3.63507 170.403 4.45596C170.292 5.27685 170.867 6.0327 171.688 6.14419L172.091 3.17148ZM163.686 5.16827C164.51 5.25727 165.249 4.66173 165.338 3.8381C165.427 3.01447 164.832 2.27463 164.008 2.18563L163.686 5.16827ZM155.901 1.4232C155.075 1.35715 154.352 1.97303 154.286 2.79882C154.22 3.62461 154.836 4.34759 155.662 4.41365L155.901 1.4232ZM147.62 3.88377C148.447 3.92661 149.153 3.29067 149.195 2.46335C149.238 1.63603 148.602 0.930626 147.775 0.887781L147.62 3.88377ZM139.637 0.581047C138.809 0.561485 138.122 1.21701 138.102 2.04521C138.082 2.8734 138.738 3.56065 139.566 3.58021L139.637 0.581047ZM131.507 3.50274C132.335 3.49913 133.004 2.82465 133 1.99623C132.997 1.16781 132.322 0.499163 131.494 0.502764L131.507 3.50274ZM123.351 0.650833C122.523 0.677292 121.874 1.36997 121.9 2.19798C121.927 3.02598 122.619 3.67576 123.447 3.6493L123.351 0.650833ZM115.394 4.0162C116.221 3.96735 116.851 3.25735 116.803 2.43036C116.754 1.60337 116.044 0.97257 115.217 1.02142L115.394 4.0162ZM107.096 1.60914C106.27 1.67977 105.658 2.40616 105.729 3.23157C105.8 4.05698 106.526 4.66885 107.351 4.59822L107.096 1.60914ZM99.326 5.38887C100.149 5.29719 100.742 4.55542 100.651 3.73208C100.559 2.90874 99.8174 2.31561 98.994 2.40729L99.326 5.38887ZM90.9167 3.4081C90.0958 3.52 89.5211 4.27614 89.633 5.09697C89.7449 5.9178 90.5011 6.49251 91.3219 6.3806L90.9167 3.4081ZM83.3431 7.56511C84.1611 7.43387 84.7178 6.66438 84.5866 5.84642C84.4553 5.02845 83.6858 4.47175 82.8679 4.60299L83.3431 7.56511ZM74.851 5.98291C74.0362 6.13256 73.497 6.9144 73.6466 7.72919C73.7963 8.54399 74.5781 9.0832 75.3929 8.93355L74.851 5.98291ZM67.4736 10.4768C68.285 10.3097 68.8073 9.51649 68.6402 8.70509C68.4731 7.89369 67.6799 7.37139 66.8685 7.53849L67.4736 10.4768ZM58.9219 9.26038C58.1141 9.44399 57.6081 10.2477 57.7917 11.0555C57.9753 11.8633 58.779 12.3694 59.5868 12.1858L58.9219 9.26038ZM51.7332 14.0514C52.5374 13.8522 53.0278 13.0389 52.8286 12.2348C52.6295 11.4306 51.8161 10.9402 51.012 11.1394L51.7332 14.0514ZM43.1384 13.1666C42.338 13.3804 41.8625 14.2026 42.0763 15.0029C42.2901 15.8033 43.1122 16.2788 43.9126 16.065L43.1384 13.1666ZM36.124 18.2183C36.9206 17.9908 37.3819 17.1606 37.1543 16.364C36.9267 15.5675 36.0965 15.1062 35.3 15.3337L36.124 18.2183ZM27.4949 17.6329C26.7022 17.8734 26.2545 18.711 26.4949 19.5038C26.7354 20.2965 27.573 20.7442 28.3658 20.5038L27.4949 17.6329ZM20.6415 22.9122C21.4305 22.6596 21.8653 21.8152 21.6128 21.0263C21.3602 20.2373 20.5158 19.8024 19.7269 20.055L20.6415 22.9122ZM12.0236 22.5828C11.2383 22.8466 10.8156 23.6972 11.0795 24.4824C11.3434 25.2677 12.1939 25.6904 12.9792 25.4265L12.0236 22.5828ZM5.34531 28.0498C6.12695 27.7754 6.5381 26.9192 6.26364 26.1376C5.98918 25.3559 5.13304 24.9448 4.35139 25.2193L5.34531 28.0498ZM254.523 24.8754C253.245 24.3997 251.97 23.9302 250.698 23.467L249.672 26.286C250.937 26.7467 252.206 27.2137 253.477 27.6869L254.523 24.8754ZM243.042 20.7453C240.466 19.8522 237.9 18.9858 235.341 18.1466L234.406 20.9971C236.948 21.8309 239.499 22.692 242.059 23.5798L243.042 20.7453ZM227.595 15.6823C224.991 14.8803 222.393 14.1074 219.801 13.3644L218.974 16.2482C221.547 16.9857 224.126 17.753 226.712 18.5494L227.595 15.6823ZM211.96 11.2046C209.328 10.5095 206.699 9.84606 204.073 9.21482L203.372 12.1318C205.976 12.7577 208.583 13.4157 211.194 14.1052L211.96 11.2046ZM196.139 7.40636C193.481 6.83355 190.823 6.29452 188.163 5.78997L187.604 8.73741C190.239 9.23725 192.873 9.77135 195.507 10.3391L196.139 7.40636ZM180.145 4.37534C177.464 3.93822 174.781 3.53669 172.091 3.17148L171.688 6.14419C174.35 6.50576 177.007 6.90334 179.662 7.33623L180.145 4.37534ZM164.008 2.18563C161.313 1.89441 158.611 1.64004 155.901 1.4232L155.662 4.41365C158.344 4.62825 161.018 4.88001 163.686 5.16827L164.008 2.18563ZM147.775 0.887781C145.073 0.747858 142.361 0.64539 139.637 0.581047L139.566 3.58021C142.262 3.64389 144.946 3.74529 147.62 3.88377L147.775 0.887781ZM131.494 0.502764C128.793 0.514498 126.08 0.563646 123.351 0.650833L123.447 3.6493C126.148 3.56299 128.834 3.51435 131.507 3.50274L131.494 0.502764ZM115.217 1.02142C112.526 1.18037 109.819 1.37609 107.096 1.60914L107.351 4.59822C110.049 4.3674 112.729 4.17359 115.394 4.0162L115.217 1.02142ZM98.994 2.40729C96.3195 2.7051 93.6275 3.03853 90.9167 3.4081L91.3219 6.3806C94.0087 6.01432 96.6762 5.68392 99.326 5.38887L98.994 2.40729ZM82.8679 4.60299C80.2148 5.02868 77.5429 5.48849 74.851 5.98291L75.3929 8.93355C78.063 8.44316 80.7127 7.98717 83.3431 7.56511L82.8679 4.60299ZM66.8685 7.53849C64.2397 8.07988 61.5912 8.6537 58.9219 9.26038L59.5868 12.1858C62.2366 11.5835 64.8651 11.014 67.4736 10.4768L66.8685 7.53849ZM51.012 11.1394C48.408 11.7843 45.7838 12.4599 43.1384 13.1666L43.9126 16.065C46.5407 15.3629 49.1473 14.6919 51.7332 14.0514L51.012 11.1394ZM35.3 15.3337C32.719 16.0711 30.1176 16.8374 27.4949 17.6329L28.3658 20.5038C30.9732 19.7128 33.559 18.9511 36.124 18.2183L35.3 15.3337ZM19.7269 20.055C17.1796 20.8705 14.6121 21.713 12.0236 22.5828L12.9792 25.4265C15.5544 24.5612 18.1082 23.7232 20.6415 22.9122L19.7269 20.055ZM4.35139 25.2193C3.07074 25.6689 1.78491 26.1252 0.493835 26.588L1.50616 29.412C2.79117 28.9514 4.07086 28.4973 5.34531 28.0498L4.35139 25.2193ZM254.624 27.6452C255.377 27.3006 255.709 26.4105 255.364 25.6571L249.748 13.3807C249.404 12.6273 248.513 12.296 247.76 12.6406C247.007 12.9852 246.675 13.8753 247.02 14.6287L252.012 25.5411L241.1 30.533C240.346 30.8776 240.015 31.7677 240.359 32.521C240.704 33.2744 241.594 33.6057 242.348 33.2611L254.624 27.6452ZM250.698 23.467C249.92 23.1836 249.059 23.5849 248.775 24.3633C248.492 25.1418 248.893 26.0026 249.672 26.286L250.698 23.467ZM242.059 23.5798C242.842 23.8512 243.697 23.4366 243.968 22.6539C244.239 21.8712 243.825 21.0167 243.042 20.7453L242.059 23.5798ZM235.341 18.1466C234.554 17.8884 233.707 18.3172 233.449 19.1043C233.19 19.8915 233.619 20.7389 234.406 20.9971L235.341 18.1466ZM226.712 18.5494C227.503 18.7932 228.343 18.3491 228.587 17.5574C228.831 16.7656 228.387 15.9261 227.595 15.6823L226.712 18.5494ZM219.801 13.3644C219.005 13.1361 218.174 13.5966 217.946 14.393C217.718 15.1893 218.178 16.0199 218.974 16.2482L219.801 13.3644ZM211.194 14.1052C211.995 14.3167 212.816 13.8388 213.028 13.0379C213.239 12.2369 212.761 11.4161 211.96 11.2046L211.194 14.1052ZM204.073 9.21482C203.267 9.02126 202.457 9.51733 202.264 10.3228C202.07 11.1283 202.566 11.9382 203.372 12.1318L204.073 9.21482ZM195.507 10.3391C196.317 10.5136 197.115 9.99851 197.29 9.18867C197.464 8.37883 196.949 7.58086 196.139 7.40636L195.507 10.3391ZM188.163 5.78997C187.349 5.63558 186.564 6.17023 186.409 6.98414C186.255 7.79806 186.79 8.58302 187.604 8.73741L188.163 5.78997ZM179.662 7.33623C180.48 7.46956 181.251 6.91484 181.384 6.09721C181.517 5.27959 180.962 4.50868 180.145 4.37534L179.662 7.33623ZM172.091 3.17148C171.271 3.05999 170.515 3.63507 170.403 4.45596C170.292 5.27685 170.867 6.0327 171.688 6.14419L172.091 3.17148ZM163.686 5.16827C164.51 5.25727 165.249 4.66173 165.338 3.8381C165.427 3.01447 164.832 2.27463 164.008 2.18563L163.686 5.16827ZM155.901 1.4232C155.075 1.35715 154.352 1.97303 154.286 2.79882C154.22 3.62461 154.836 4.34759 155.662 4.41365L155.901 1.4232ZM147.62 3.88377C148.447 3.92661 149.153 3.29067 149.195 2.46335C149.238 1.63603 148.602 0.930626 147.775 0.887781L147.62 3.88377ZM139.637 0.581047C138.809 0.561485 138.122 1.21701 138.102 2.04521C138.082 2.8734 138.738 3.56065 139.566 3.58021L139.637 0.581047ZM131.507 3.50274C132.335 3.49913 133.004 2.82465 133 1.99623C132.997 1.16781 132.322 0.499163 131.494 0.502764L131.507 3.50274ZM123.351 0.650833C122.523 0.677292 121.874 1.36997 121.9 2.19798C121.927 3.02598 122.619 3.67576 123.447 3.6493L123.351 0.650833ZM115.394 4.0162C116.221 3.96735 116.851 3.25735 116.803 2.43036C116.754 1.60337 116.044 0.97257 115.217 1.02142L115.394 4.0162ZM107.096 1.60914C106.27 1.67977 105.658 2.40616 105.729 3.23157C105.8 4.05698 106.526 4.66885 107.351 4.59822L107.096 1.60914ZM99.326 5.38887C100.149 5.29719 100.742 4.55542 100.651 3.73208C100.559 2.90874 99.8174 2.31561 98.994 2.40729L99.326 5.38887ZM90.9167 3.4081C90.0958 3.52 89.5211 4.27614 89.633 5.09697C89.7449 5.9178 90.5011 6.49251 91.3219 6.3806L90.9167 3.4081ZM83.3431 7.56511C84.1611 7.43387 84.7178 6.66438 84.5866 5.84642C84.4553 5.02845 83.6858 4.47175 82.8679 4.60299L83.3431 7.56511ZM74.851 5.98291C74.0362 6.13256 73.497 6.9144 73.6466 7.72919C73.7963 8.54399 74.5781 9.0832 75.3929 8.93355L74.851 5.98291ZM67.4736 10.4768C68.285 10.3097 68.8073 9.51649 68.6402 8.70509C68.4731 7.89369 67.6799 7.37139 66.8685 7.53849L67.4736 10.4768ZM58.9219 9.26038C58.1141 9.44399 57.6081 10.2477 57.7917 11.0555C57.9753 11.8633 58.779 12.3694 59.5868 12.1858L58.9219 9.26038ZM51.7332 14.0514C52.5374 13.8522 53.0278 13.0389 52.8286 12.2348C52.6295 11.4306 51.8161 10.9402 51.012 11.1394L51.7332 14.0514ZM43.1384 13.1666C42.338 13.3804 41.8625 14.2026 42.0763 15.0029C42.2901 15.8033 43.1122 16.2788 43.9126 16.065L43.1384 13.1666ZM36.124 18.2183C36.9206 17.9908 37.3819 17.1606 37.1543 16.364C36.9267 15.5675 36.0965 15.1062 35.3 15.3337L36.124 18.2183ZM27.4949 17.6329C26.7022 17.8734 26.2545 18.711 26.4949 19.5038C26.7354 20.2965 27.573 20.7442 28.3658 20.5038L27.4949 17.6329ZM20.6415 22.9122C21.4305 22.6596 21.8653 21.8152 21.6128 21.0263C21.3602 20.2373 20.5158 19.8024 19.7269 20.055L20.6415 22.9122ZM12.0236 22.5828C11.2383 22.8466 10.8156 23.6972 11.0795 24.4824C11.3434 25.2677 12.1939 25.6904 12.9792 25.4265L12.0236 22.5828ZM5.34531 28.0498C6.12695 27.7754 6.5381 26.9192 6.26364 26.1376C5.98918 25.3559 5.13304 24.9448 4.35139 25.2193L5.34531 28.0498ZM254.523 24.8754C253.245 24.3997 251.97 23.9302 250.698 23.467L249.672 26.286C250.937 26.7467 252.206 27.2137 253.477 27.6869L254.523 24.8754ZM243.042 20.7453C240.466 19.8522 237.9 18.9858 235.341 18.1466L234.406 20.9971C236.948 21.8309 239.499 22.692 242.059 23.5798L243.042 20.7453ZM227.595 15.6823C224.991 14.8803 222.393 14.1074 219.801 13.3644L218.974 16.2482C221.547 16.9857 224.126 17.753 226.712 18.5494L227.595 15.6823ZM211.96 11.2046C209.328 10.5095 206.699 9.84606 204.073 9.21482L203.372 12.1318C205.976 12.7577 208.583 13.4157 211.194 14.1052L211.96 11.2046ZM196.139 7.40636C193.481 6.83355 190.823 6.29452 188.163 5.78997L187.604 8.73741C190.239 9.23725 192.873 9.77135 195.507 10.3391L196.139 7.40636ZM180.145 4.37534C177.464 3.93822 174.781 3.53669 172.091 3.17148L171.688 6.14419C174.35 6.50576 177.007 6.90334 179.662 7.33623L180.145 4.37534ZM164.008 2.18563C161.313 1.89441 158.611 1.64004 155.901 1.4232L155.662 4.41365C158.344 4.62825 161.018 4.88001 163.686 5.16827L164.008 2.18563ZM147.775 0.887781C145.073 0.747858 142.361 0.64539 139.637 0.581047L139.566 3.58021C142.262 3.64389 144.946 3.74529 147.62 3.88377L147.775 0.887781ZM131.494 0.502764C128.793 0.514498 126.08 0.563646 123.351 0.650833L123.447 3.6493C126.148 3.56299 128.834 3.51435 131.507 3.50274L131.494 0.502764ZM115.217 1.02142C112.526 1.18037 109.819 1.37609 107.096 1.60914L107.351 4.59822C110.049 4.3674 112.729 4.17359 115.394 4.0162L115.217 1.02142ZM98.994 2.40729C96.3195 2.7051 93.6275 3.03853 90.9167 3.4081L91.3219 6.3806C94.0087 6.01432 96.6762 5.68392 99.326 5.38887L98.994 2.40729ZM82.8679 4.60299C80.2148 5.02868 77.5429 5.48849 74.851 5.98291L75.3929 8.93355C78.063 8.44316 80.7127 7.98717 83.3431 7.56511L82.8679 4.60299ZM66.8685 7.53849C64.2397 8.07988 61.5912 8.6537 58.9219 9.26038L59.5868 12.1858C62.2366 11.5835 64.8651 11.014 67.4736 10.4768L66.8685 7.53849ZM51.012 11.1394C48.408 11.7843 45.7838 12.4599 43.1384 13.1666L43.9126 16.065C46.5407 15.3629 49.1473 14.6919 51.7332 14.0514L51.012 11.1394ZM35.3 15.3337C32.719 16.0711 30.1176 16.8374 27.4949 17.6329L28.3658 20.5038C30.9732 19.7128 33.559 18.9511 36.124 18.2183L35.3 15.3337ZM19.7269 20.055C17.1796 20.8705 14.6121 21.713 12.0236 22.5828L12.9792 25.4265C15.5544 24.5612 18.1082 23.7232 20.6415 22.9122L19.7269 20.055ZM4.35139 25.2193C3.07074 25.6689 1.78491 26.1252 0.493835 26.588L1.50616 29.412C2.79117 28.9514 4.07086 28.4973 5.34531 28.0498L4.35139 25.2193Z" fill="#86928E"/>
</svg>
