<svg width="1280" height="1199" viewBox="0 0 1280 1199" fill="none" xmlns="http://www.w3.org/2000/svg">
<path d="M-114.572 323.695L-99.9814 322.229C87.7053 303.535 276.959 322.984 458.075 379.578V379.578" stroke="url(#paint0_radial_94_341)" stroke-opacity="0.08" stroke-width="3" stroke-miterlimit="10"/>
<path d="M-106.087 251.628H-91.4963C97.021 251.249 283.949 289.033 459.697 363.041V363.041" stroke="url(#paint1_radial_94_341)" stroke-opacity="0.08" stroke-width="3" stroke-miterlimit="10"/>
<path d="M-91.7649 180.676L-77.1745 182.083C110.582 200.046 293.605 255.847 462.509 346.623V346.623" stroke="url(#paint2_radial_94_341)" stroke-opacity="0.08" stroke-width="3" stroke-miterlimit="10"/>
<path d="M-71.5525 111.423L-57.1782 114.238C128.425 150.368 306.19 223.748 466.996 330.614V330.614" stroke="url(#paint3_radial_94_341)" stroke-opacity="0.08" stroke-width="3" stroke-miterlimit="10"/>
<path d="M-45.7798 44.3997L-31.6757 48.563C150.098 102.646 320.987 193.028 472.234 315.075V315.075" stroke="url(#paint4_radial_94_341)" stroke-opacity="0.08" stroke-width="3" stroke-miterlimit="10"/>
<path d="M-14.5374 -19.868L-0.811556 -14.0041C175.76 57.5312 338.494 164.159 479.051 300.416V300.416" stroke="url(#paint5_radial_94_341)" stroke-opacity="0.08" stroke-width="3" stroke-miterlimit="10"/>
<path d="M21.8755 -80.7941L35.0609 -73.7574C205.028 14.6634 358.307 136.705 487.039 286.108V286.108" stroke="url(#paint6_radial_94_341)" stroke-opacity="0.08" stroke-width="3" stroke-miterlimit="10"/>
<path d="M63.2173 -137.967L75.7542 -129.875C237.722 -25.2678 380.298 111.19 496.174 272.503V272.503" stroke="url(#paint7_radial_94_341)" stroke-opacity="0.08" stroke-width="3" stroke-miterlimit="10"/>
<path d="M109.044 -191.035L120.878 -181.77C273.562 -61.828 404.3 87.9532 506.389 259.896V259.896" stroke="url(#paint8_radial_94_341)" stroke-opacity="0.08" stroke-width="3" stroke-miterlimit="10"/>
<path d="M159.083 -239.118L169.891 -228.681C312.06 -94.4065 429.899 67.4685 517.359 248.638V248.638" stroke="url(#paint9_radial_94_341)" stroke-opacity="0.08" stroke-width="3" stroke-miterlimit="10"/>
<path d="M212.962 -282.275L222.96 -270.841C353.448 -123.261 457.43 49.4301 529.574 238.377V238.377" stroke="url(#paint10_radial_94_341)" stroke-opacity="0.08" stroke-width="3" stroke-miterlimit="10"/>
<path d="M270.135 -320.04L279.268 -307.667C397.035 -147.976 486.337 34.1391 542.598 229.345V229.345" stroke="url(#paint11_radial_94_341)" stroke-opacity="0.08" stroke-width="3" stroke-miterlimit="10"/>
<path d="M330.222 -352.115L338.274 -338.863C442.377 -168.362 516.268 21.7096 556.157 221.605V221.605" stroke="url(#paint12_radial_94_341)" stroke-opacity="0.08" stroke-width="3" stroke-miterlimit="10"/>
<path d="M392.693 -378.209L399.61 -364.253C489.217 -184.314 547.109 12.1815 570.317 215.155" stroke="url(#paint13_radial_94_341)" stroke-opacity="0.08" stroke-width="3" stroke-miterlimit="10"/>
<path d="M457.054 -398.087L462.836 -383.486C537.2 -195.556 578.634 5.76722 585.017 210.172V210.172" stroke="url(#paint14_radial_94_341)" stroke-opacity="0.08" stroke-width="3" stroke-miterlimit="10"/>
<path d="M522.819 -411.632L527.358 -396.269C585.914 -201.865 610.544 2.68417 599.986 206.888V206.888" stroke="url(#paint15_radial_94_341)" stroke-opacity="0.08" stroke-width="3" stroke-miterlimit="10"/>
<path d="M589.449 -418.728L592.691 -403.306C634.963 -203.972 642.605 2.16814 615.225 204.542V204.542" stroke="url(#paint16_radial_94_341)" stroke-opacity="0.08" stroke-width="3" stroke-miterlimit="10"/>
<path d="M656.398 -419.315L658.343 -403.6C683.965 -200.968 674.545 5.07046 630.567 203.955V203.955" stroke="url(#paint17_radial_94_341)" stroke-opacity="0.08" stroke-width="3" stroke-miterlimit="10"/>
<path d="M723.082 -413.392L723.785 -397.56C732.557 -193.255 706.15 11.0338 645.915 204.835V204.835" stroke="url(#paint18_radial_94_341)" stroke-opacity="0.08" stroke-width="3" stroke-miterlimit="10"/>
<path d="M789.065 -401.019L788.416 -385.186C780.29 -180.896 737.113 19.9567 661.102 207.064V207.064" stroke="url(#paint19_radial_94_341)" stroke-opacity="0.08" stroke-width="3" stroke-miterlimit="10"/>
<path d="M853.747 -382.254L851.802 -366.539C826.803 -163.815 767.208 32.0786 676.069 211.11V211.11" stroke="url(#paint20_radial_94_341)" stroke-opacity="0.08" stroke-width="3" stroke-miterlimit="10"/>
<path d="M916.591 -357.275L913.349 -341.853C871.73 -142.364 796.189 46.9528 690.602 216.387V216.387" stroke="url(#paint21_radial_94_341)" stroke-opacity="0.08" stroke-width="3" stroke-miterlimit="10"/>
<path d="M977.121 -326.313L972.636 -311.243C914.69 -116.625 823.831 64.5723 704.712 223.072V223.072" stroke="url(#paint22_radial_94_341)" stroke-opacity="0.08" stroke-width="3" stroke-miterlimit="10"/>
<path d="M1034.89 -289.548L1029.16 -275.006C955.404 -86.7673 849.937 84.891 718.17 231.163V231.163" stroke="url(#paint23_radial_94_341)" stroke-opacity="0.08" stroke-width="3" stroke-miterlimit="10"/>
<path d="M1089.36 -247.386L1082.44 -233.371C993.424 -53.1036 874.214 107.575 730.922 240.429V240.429" stroke="url(#paint24_radial_94_341)" stroke-opacity="0.08" stroke-width="3" stroke-miterlimit="10"/>
<path d="M1140.1 -200.007L1132.1 -186.754C1028.58 -15.9125 896.639 132.511 743.027 250.924V250.924" stroke="url(#paint25_radial_94_341)" stroke-opacity="0.08" stroke-width="3" stroke-miterlimit="10"/>
<path d="M1186.79 -147.935L1177.66 -135.504C1060.41 24.6281 916.658 159.617 753.781 262.535V262.535" stroke="url(#paint26_radial_94_341)" stroke-opacity="0.08" stroke-width="3" stroke-miterlimit="10"/>
<path d="M1228.94 -91.3495L1218.83 -79.6218C1088.83 68.4667 934.5 188.938 763.776 275.611V275.611" stroke="url(#paint27_radial_94_341)" stroke-opacity="0.08" stroke-width="3" stroke-miterlimit="10"/>
<path d="M1266.27 -31.2448L1255.09 -20.983C1113.37 113.841 949.712 218.8 772.524 288.512V288.512" stroke="url(#paint28_radial_94_341)" stroke-opacity="0.08" stroke-width="3" stroke-miterlimit="10"/>
<path d="M1298.33 32.4374L1286.49 41.8195C1134.2 162.309 962.541 250.94 780.315 303.172V303.172" stroke="url(#paint29_radial_94_341)" stroke-opacity="0.08" stroke-width="3" stroke-miterlimit="10"/>
<path d="M1325.35 99.05L1312.81 107.201C1151.17 212.402 972.88 283.99 787.068 318.3V318.3" stroke="url(#paint30_radial_94_341)" stroke-opacity="0.08" stroke-width="3" stroke-miterlimit="10"/>
<path d="M1346.47 167.892L1333.34 174.811C1163.66 263.879 980.161 317.83 792.252 333.898V333.898" stroke="url(#paint31_radial_94_341)" stroke-opacity="0.08" stroke-width="3" stroke-miterlimit="10"/>
<path d="M1361.93 238.61L1348.26 244.474C1171.89 316.654 984.679 352.548 796.199 350.317V350.317" stroke="url(#paint32_radial_94_341)" stroke-opacity="0.08" stroke-width="3" stroke-miterlimit="10"/>
<path d="M1371.44 310.501L1357.39 314.723C1175.77 369.489 986.338 387.029 798.795 366.442V366.442" stroke="url(#paint33_radial_94_341)" stroke-opacity="0.08" stroke-width="3" stroke-miterlimit="10"/>
<path d="M1375 383.038L1360.63 385.911C1175.22 422.755 985.108 421.78 800.03 383.038" stroke="url(#paint34_radial_94_341)" stroke-opacity="0.08" stroke-width="3" stroke-miterlimit="10"/>
<path d="M1372.52 455.631L1357.98 457.097C1170.29 475.745 981.041 456.277 799.923 399.69V399.69" stroke="url(#paint35_radial_94_341)" stroke-opacity="0.08" stroke-width="3" stroke-miterlimit="10"/>
<path d="M1364.09 527.699H1349.5C1160.99 528.079 974.058 490.295 798.311 416.286V416.286" stroke="url(#paint36_radial_94_341)" stroke-opacity="0.08" stroke-width="3" stroke-miterlimit="10"/>
<path d="M1349.71 598.652L1335.18 597.245C1147.52 579.198 964.592 523.38 795.765 432.646V432.646" stroke="url(#paint37_radial_94_341)" stroke-opacity="0.08" stroke-width="3" stroke-miterlimit="10"/>
<path d="M1329.55 667.904L1315.18 665.089C1129.57 628.965 951.796 555.563 791.005 448.654V448.654" stroke="url(#paint38_radial_94_341)" stroke-opacity="0.08" stroke-width="3" stroke-miterlimit="10"/>
<path d="M1303.73 734.927L1289.63 730.705C1107.86 676.642 936.968 586.281 785.719 464.251V464.251" stroke="url(#paint39_radial_94_341)" stroke-opacity="0.08" stroke-width="3" stroke-miterlimit="10"/>
<path d="M1272.55 799.195L1258.83 793.331C1082.26 721.772 919.534 615.147 778.963 478.911V478.911" stroke="url(#paint40_radial_94_341)" stroke-opacity="0.08" stroke-width="3" stroke-miterlimit="10"/>
<path d="M1236.13 860.12L1222.94 853.26C1052.98 764.839 899.696 642.797 770.964 493.394V493.394" stroke="url(#paint41_radial_94_341)" stroke-opacity="0.08" stroke-width="3" stroke-miterlimit="10"/>
<path d="M1194.79 917.235L1182.25 909.084C1020.29 804.498 877.712 668.06 761.833 506.764V506.764" stroke="url(#paint42_radial_94_341)" stroke-opacity="0.08" stroke-width="3" stroke-miterlimit="10"/>
<path d="M1148.91 970.01L1137.07 960.687C984.41 840.762 853.69 691.001 751.618 519.079V519.079" stroke="url(#paint43_radial_94_341)" stroke-opacity="0.08" stroke-width="3" stroke-miterlimit="10"/>
<path d="M1098.87 1018.45L1088.07 1008.01C945.914 873.707 828.095 711.813 740.652 530.631V530.631" stroke="url(#paint44_radial_94_341)" stroke-opacity="0.08" stroke-width="3" stroke-miterlimit="10"/>
<path d="M1045.04 1061.6L1034.94 1049.88C904.437 902.285 800.453 729.572 728.324 540.599V540.599" stroke="url(#paint45_radial_94_341)" stroke-opacity="0.08" stroke-width="3" stroke-miterlimit="10"/>
<path d="M987.869 1099.37L978.736 1087.29C860.968 927.596 771.666 745.481 715.406 550.275V550.275" stroke="url(#paint46_radial_94_341)" stroke-opacity="0.08" stroke-width="3" stroke-miterlimit="10"/>
<path d="M927.778 1131.38L919.726 1118.19C815.611 947.696 741.719 757.622 701.843 557.722V557.722" stroke="url(#paint47_radial_94_341)" stroke-opacity="0.08" stroke-width="3" stroke-miterlimit="10"/>
<path d="M865.314 1157.65L858.397 1143.7C768.758 963.711 710.864 767.15 687.689 564.113V564.113" stroke="url(#paint48_radial_94_341)" stroke-opacity="0.08" stroke-width="3" stroke-miterlimit="10"/>
<path d="M801.171 1177.41L795.389 1162.81C721.025 974.884 679.591 773.561 673.208 569.157V569.157" stroke="url(#paint49_radial_94_341)" stroke-opacity="0.08" stroke-width="3" stroke-miterlimit="10"/>
<path d="M735.193 1190.96L730.653 1175.89C672.071 981.471 647.44 776.898 658.026 572.674V572.674" stroke="url(#paint50_radial_94_341)" stroke-opacity="0.08" stroke-width="3" stroke-miterlimit="10"/>
<path d="M668.562 1198.06L665.265 1182.57C623.009 983.258 615.385 777.136 642.785 574.786V574.786" stroke="url(#paint51_radial_94_341)" stroke-opacity="0.08" stroke-width="3" stroke-miterlimit="10"/>
<path d="M601.608 1198.7L599.609 1182.98C574.004 980.35 583.441 774.311 627.439 575.43V575.43" stroke="url(#paint52_radial_94_341)" stroke-opacity="0.08" stroke-width="3" stroke-miterlimit="10"/>
<path d="M534.917 1192.84L534.214 1177C525.411 972.664 551.8 768.334 612.03 574.492V574.492" stroke="url(#paint53_radial_94_341)" stroke-opacity="0.08" stroke-width="3" stroke-miterlimit="10"/>
<path d="M468.939 1180.35L469.588 1164.51C477.714 960.224 520.891 759.371 596.903 572.264V572.264" stroke="url(#paint54_radial_94_341)" stroke-opacity="0.08" stroke-width="3" stroke-miterlimit="10"/>
<path d="M404.261 1161.58L406.207 1145.87C431.179 943.136 490.776 747.237 581.94 568.218V568.218" stroke="url(#paint55_radial_94_341)" stroke-opacity="0.08" stroke-width="3" stroke-miterlimit="10"/>
<path d="M341.409 1136.6L344.651 1121.12C386.271 921.651 461.812 732.354 567.398 562.941V562.941" stroke="url(#paint56_radial_94_341)" stroke-opacity="0.08" stroke-width="3" stroke-miterlimit="10"/>
<path d="M280.89 1105.64L285.376 1090.51C343.288 895.897 434.15 714.712 553.299 556.257V556.257" stroke="url(#paint57_radial_94_341)" stroke-opacity="0.08" stroke-width="3" stroke-miterlimit="10"/>
<path d="M222.958 1068.87L228.686 1054.27C302.465 866.082 407.931 694.466 539.678 548.222V548.222" stroke="url(#paint58_radial_94_341)" stroke-opacity="0.08" stroke-width="3" stroke-miterlimit="10"/>
<path d="M168.918 1026.65L175.835 1012.7C264.868 832.441 384.076 671.766 527.356 538.898V538.898" stroke="url(#paint59_radial_94_341)" stroke-opacity="0.08" stroke-width="3" stroke-miterlimit="10"/>
<path d="M117.856 979.334L125.692 966.082C229.186 795.214 361.133 646.785 514.769 528.403V528.403" stroke="url(#paint60_radial_94_341)" stroke-opacity="0.08" stroke-width="3" stroke-miterlimit="10"/>
<path d="M71.2166 927.262L80.295 914.83C197.494 754.719 341.168 619.714 503.957 516.733V516.733" stroke="url(#paint61_radial_94_341)" stroke-opacity="0.08" stroke-width="3" stroke-miterlimit="10"/>
<path d="M29.0627 870.793L39.1139 859.065C169.118 710.971 323.445 590.499 494.173 503.832V503.832" stroke="url(#paint62_radial_94_341)" stroke-opacity="0.08" stroke-width="3" stroke-miterlimit="10"/>
<path d="M-8.27905 810.512L2.52866 800.075C144.258 665.245 307.908 560.267 485.093 490.521V490.521" stroke="url(#paint63_radial_94_341)" stroke-opacity="0.08" stroke-width="3" stroke-miterlimit="10"/>
<path d="M-40.4814 746.831L-28.647 737.508C123.636 616.995 295.298 528.362 477.532 476.155V476.155" stroke="url(#paint64_radial_94_341)" stroke-opacity="0.08" stroke-width="3" stroke-miterlimit="10"/>
<path d="M-67.2888 680.276L-54.7519 672.125C106.871 566.889 285.168 495.298 470.989 461.026V461.026" stroke="url(#paint65_radial_94_341)" stroke-opacity="0.08" stroke-width="3" stroke-miterlimit="10"/>
<path d="M-88.4714 611.376L-75.3401 604.457C94.3504 515.427 277.846 461.497 465.748 445.429V445.429" stroke="url(#paint66_radial_94_341)" stroke-opacity="0.08" stroke-width="3" stroke-miterlimit="10"/>
<path d="M-103.922 540.717L-90.2506 534.853C86.1228 462.74 273.342 426.945 461.807 429.304V429.304" stroke="url(#paint67_radial_94_341)" stroke-opacity="0.08" stroke-width="3" stroke-miterlimit="10"/>
<path d="M-113.432 468.825L-99.3821 464.545C82.229 409.848 271.642 392.349 459.16 412.943V412.943" stroke="url(#paint68_radial_94_341)" stroke-opacity="0.08" stroke-width="3" stroke-miterlimit="10"/>
<path d="M-117 396.289L-102.626 393.416C82.7607 356.542 272.859 357.517 457.916 396.289V396.289" stroke="url(#paint69_radial_94_341)" stroke-opacity="0.08" stroke-width="3" stroke-miterlimit="10"/>
<defs>
<radialGradient id="paint0_radial_94_341" cx="0" cy="0" r="1" gradientUnits="userSpaceOnUse" gradientTransform="translate(171.752 347.46) rotate(90) scale(32.1175 286.323)">
<stop stop-color="#4C1D95"/>
<stop offset="1" stop-color="#CD2480" stop-opacity="0.23"/>
</radialGradient>
<radialGradient id="paint1_radial_94_341" cx="0" cy="0" r="1" gradientUnits="userSpaceOnUse" gradientTransform="translate(176.805 307.333) rotate(90) scale(55.7081 282.892)">
<stop stop-color="#4C1D95"/>
<stop offset="1" stop-color="#CD2480" stop-opacity="0.23"/>
</radialGradient>
<radialGradient id="paint2_radial_94_341" cx="0" cy="0" r="1" gradientUnits="userSpaceOnUse" gradientTransform="translate(185.372 263.65) rotate(90) scale(82.9736 277.137)">
<stop stop-color="#4C1D95"/>
<stop offset="1" stop-color="#CD2480" stop-opacity="0.23"/>
</radialGradient>
<radialGradient id="paint3_radial_94_341" cx="0" cy="0" r="1" gradientUnits="userSpaceOnUse" gradientTransform="translate(197.722 221.019) rotate(90) scale(109.596 269.274)">
<stop stop-color="#4C1D95"/>
<stop offset="1" stop-color="#CD2480" stop-opacity="0.23"/>
</radialGradient>
<radialGradient id="paint4_radial_94_341" cx="0" cy="0" r="1" gradientUnits="userSpaceOnUse" gradientTransform="translate(213.227 179.738) rotate(90) scale(135.338 259.007)">
<stop stop-color="#4C1D95"/>
<stop offset="1" stop-color="#CD2480" stop-opacity="0.23"/>
</radialGradient>
<radialGradient id="paint5_radial_94_341" cx="0" cy="0" r="1" gradientUnits="userSpaceOnUse" gradientTransform="translate(232.257 140.274) rotate(90) scale(160.142 246.794)">
<stop stop-color="#4C1D95"/>
<stop offset="1" stop-color="#CD2480" stop-opacity="0.23"/>
</radialGradient>
<radialGradient id="paint6_radial_94_341" cx="0" cy="0" r="1" gradientUnits="userSpaceOnUse" gradientTransform="translate(254.457 102.657) rotate(90) scale(183.451 232.582)">
<stop stop-color="#4C1D95"/>
<stop offset="1" stop-color="#CD2480" stop-opacity="0.23"/>
</radialGradient>
<radialGradient id="paint7_radial_94_341" cx="0" cy="0" r="1" gradientUnits="userSpaceOnUse" gradientTransform="translate(279.696 67.2681) rotate(90) scale(205.235 216.478)">
<stop stop-color="#4C1D95"/>
<stop offset="1" stop-color="#CD2480" stop-opacity="0.23"/>
</radialGradient>
<radialGradient id="paint8_radial_94_341" cx="0" cy="0" r="1" gradientUnits="userSpaceOnUse" gradientTransform="translate(307.716 34.4304) rotate(90) scale(225.465 198.673)">
<stop stop-color="#4C1D95"/>
<stop offset="1" stop-color="#CD2480" stop-opacity="0.23"/>
</radialGradient>
<radialGradient id="paint9_radial_94_341" cx="0" cy="0" r="1" gradientUnits="userSpaceOnUse" gradientTransform="translate(338.221 4.75969) rotate(90) scale(243.878 179.138)">
<stop stop-color="#4C1D95"/>
<stop offset="1" stop-color="#CD2480" stop-opacity="0.23"/>
</radialGradient>
<radialGradient id="paint10_radial_94_341" cx="0" cy="0" r="1" gradientUnits="userSpaceOnUse" gradientTransform="translate(371.268 -21.9493) rotate(90) scale(260.326 158.306)">
<stop stop-color="#4C1D95"/>
<stop offset="1" stop-color="#CD2480" stop-opacity="0.23"/>
</radialGradient>
<radialGradient id="paint11_radial_94_341" cx="0" cy="0" r="1" gradientUnits="userSpaceOnUse" gradientTransform="translate(406.366 -45.3475) rotate(90) scale(274.693 136.231)">
<stop stop-color="#4C1D95"/>
<stop offset="1" stop-color="#CD2480" stop-opacity="0.23"/>
</radialGradient>
<radialGradient id="paint12_radial_94_341" cx="0" cy="0" r="1" gradientUnits="userSpaceOnUse" gradientTransform="translate(443.19 -65.255) rotate(90) scale(286.86 112.968)">
<stop stop-color="#4C1D95"/>
<stop offset="1" stop-color="#CD2480" stop-opacity="0.23"/>
</radialGradient>
<radialGradient id="paint13_radial_94_341" cx="0" cy="0" r="1" gradientUnits="userSpaceOnUse" gradientTransform="translate(481.505 -81.527) rotate(90) scale(296.682 88.8124)">
<stop stop-color="#4C1D95"/>
<stop offset="1" stop-color="#CD2480" stop-opacity="0.23"/>
</radialGradient>
<radialGradient id="paint14_radial_94_341" cx="0" cy="0" r="1" gradientUnits="userSpaceOnUse" gradientTransform="translate(521.036 -93.9576) rotate(90) scale(304.129 63.9816)">
<stop stop-color="#4C1D95"/>
<stop offset="1" stop-color="#CD2480" stop-opacity="0.23"/>
</radialGradient>
<radialGradient id="paint15_radial_94_341" cx="0" cy="0" r="1" gradientUnits="userSpaceOnUse" gradientTransform="translate(562.592 -102.372) rotate(90) scale(309.26 39.7737)">
<stop stop-color="#4C1D95"/>
<stop offset="1" stop-color="#CD2480" stop-opacity="0.23"/>
</radialGradient>
<radialGradient id="paint16_radial_94_341" cx="0" cy="0" r="1" gradientUnits="userSpaceOnUse" gradientTransform="translate(610.376 -107.093) rotate(90) scale(311.635 20.9271)">
<stop stop-color="#4C1D95"/>
<stop offset="1" stop-color="#CD2480" stop-opacity="0.23"/>
</radialGradient>
<radialGradient id="paint17_radial_94_341" cx="0" cy="0" r="1" gradientUnits="userSpaceOnUse" gradientTransform="translate(651.492 -107.68) rotate(90) scale(311.635 20.9251)">
<stop stop-color="#4C1D95"/>
<stop offset="1" stop-color="#CD2480" stop-opacity="0.23"/>
</radialGradient>
<radialGradient id="paint18_radial_94_341" cx="0" cy="0" r="1" gradientUnits="userSpaceOnUse" gradientTransform="translate(685.672 -104.279) rotate(90) scale(309.113 39.7564)">
<stop stop-color="#4C1D95"/>
<stop offset="1" stop-color="#CD2480" stop-opacity="0.23"/>
</radialGradient>
<radialGradient id="paint19_radial_94_341" cx="0" cy="0" r="1" gradientUnits="userSpaceOnUse" gradientTransform="translate(725.083 -96.9775) rotate(90) scale(304.041 63.9816)">
<stop stop-color="#4C1D95"/>
<stop offset="1" stop-color="#CD2480" stop-opacity="0.23"/>
</radialGradient>
<radialGradient id="paint20_radial_94_341" cx="0" cy="0" r="1" gradientUnits="userSpaceOnUse" gradientTransform="translate(764.908 -85.5724) rotate(90) scale(296.682 88.8394)">
<stop stop-color="#4C1D95"/>
<stop offset="1" stop-color="#CD2480" stop-opacity="0.23"/>
</radialGradient>
<radialGradient id="paint21_radial_94_341" cx="0" cy="0" r="1" gradientUnits="userSpaceOnUse" gradientTransform="translate(803.596 -70.4439) rotate(90) scale(286.831 112.995)">
<stop stop-color="#4C1D95"/>
<stop offset="1" stop-color="#CD2480" stop-opacity="0.23"/>
</radialGradient>
<radialGradient id="paint22_radial_94_341" cx="0" cy="0" r="1" gradientUnits="userSpaceOnUse" gradientTransform="translate(840.917 -51.6207) rotate(90) scale(274.693 136.204)">
<stop stop-color="#4C1D95"/>
<stop offset="1" stop-color="#CD2480" stop-opacity="0.23"/>
</radialGradient>
<radialGradient id="paint23_radial_94_341" cx="0" cy="0" r="1" gradientUnits="userSpaceOnUse" gradientTransform="translate(876.53 -29.1927) rotate(90) scale(260.355 158.36)">
<stop stop-color="#4C1D95"/>
<stop offset="1" stop-color="#CD2480" stop-opacity="0.23"/>
</radialGradient>
<radialGradient id="paint24_radial_94_341" cx="0" cy="0" r="1" gradientUnits="userSpaceOnUse" gradientTransform="translate(910.14 -3.47861) rotate(90) scale(243.907 179.219)">
<stop stop-color="#4C1D95"/>
<stop offset="1" stop-color="#CD2480" stop-opacity="0.23"/>
</radialGradient>
<radialGradient id="paint25_radial_94_341" cx="0" cy="0" r="1" gradientUnits="userSpaceOnUse" gradientTransform="translate(941.565 25.4587) rotate(90) scale(225.465 198.538)">
<stop stop-color="#4C1D95"/>
<stop offset="1" stop-color="#CD2480" stop-opacity="0.23"/>
</radialGradient>
<radialGradient id="paint26_radial_94_341" cx="0" cy="0" r="1" gradientUnits="userSpaceOnUse" gradientTransform="translate(970.286 57.2999) rotate(90) scale(205.235 216.506)">
<stop stop-color="#4C1D95"/>
<stop offset="1" stop-color="#CD2480" stop-opacity="0.23"/>
</radialGradient>
<radialGradient id="paint27_radial_94_341" cx="0" cy="0" r="1" gradientUnits="userSpaceOnUse" gradientTransform="translate(996.358 92.1307) rotate(90) scale(183.48 232.582)">
<stop stop-color="#4C1D95"/>
<stop offset="1" stop-color="#CD2480" stop-opacity="0.23"/>
</radialGradient>
<radialGradient id="paint28_radial_94_341" cx="0" cy="0" r="1" gradientUnits="userSpaceOnUse" gradientTransform="translate(1019.4 128.633) rotate(90) scale(159.878 246.875)">
<stop stop-color="#4C1D95"/>
<stop offset="1" stop-color="#CD2480" stop-opacity="0.23"/>
</radialGradient>
<radialGradient id="paint29_radial_94_341" cx="0" cy="0" r="1" gradientUnits="userSpaceOnUse" gradientTransform="translate(1039.32 167.805) rotate(90) scale(135.367 259.007)">
<stop stop-color="#4C1D95"/>
<stop offset="1" stop-color="#CD2480" stop-opacity="0.23"/>
</radialGradient>
<radialGradient id="paint30_radial_94_341" cx="0" cy="0" r="1" gradientUnits="userSpaceOnUse" gradientTransform="translate(1056.21 208.675) rotate(90) scale(109.625 269.139)">
<stop stop-color="#4C1D95"/>
<stop offset="1" stop-color="#CD2480" stop-opacity="0.23"/>
</radialGradient>
<radialGradient id="paint31_radial_94_341" cx="0" cy="0" r="1" gradientUnits="userSpaceOnUse" gradientTransform="translate(1069.36 250.895) rotate(90) scale(83.003 277.11)">
<stop stop-color="#4C1D95"/>
<stop offset="1" stop-color="#CD2480" stop-opacity="0.23"/>
</radialGradient>
<radialGradient id="paint32_radial_94_341" cx="0" cy="0" r="1" gradientUnits="userSpaceOnUse" gradientTransform="translate(1079.06 294.512) rotate(90) scale(55.9023 282.865)">
<stop stop-color="#4C1D95"/>
<stop offset="1" stop-color="#CD2480" stop-opacity="0.23"/>
</radialGradient>
<radialGradient id="paint33_radial_94_341" cx="0" cy="0" r="1" gradientUnits="userSpaceOnUse" gradientTransform="translate(1085.12 342.649) rotate(90) scale(32.1479 286.323)">
<stop stop-color="#4C1D95"/>
<stop offset="1" stop-color="#CD2480" stop-opacity="0.23"/>
</radialGradient>
<radialGradient id="paint34_radial_94_341" cx="0" cy="0" r="1" gradientUnits="userSpaceOnUse" gradientTransform="translate(1087.51 397.938) rotate(90) scale(14.8999 287.485)">
<stop stop-color="#4C1D95"/>
<stop offset="1" stop-color="#CD2480" stop-opacity="0.23"/>
</radialGradient>
<radialGradient id="paint35_radial_94_341" cx="0" cy="0" r="1" gradientUnits="userSpaceOnUse" gradientTransform="translate(1086.22 431.822) rotate(90) scale(32.1321 286.296)">
<stop stop-color="#4C1D95"/>
<stop offset="1" stop-color="#CD2480" stop-opacity="0.23"/>
</radialGradient>
<radialGradient id="paint36_radial_94_341" cx="0" cy="0" r="1" gradientUnits="userSpaceOnUse" gradientTransform="translate(1081.2 471.994) rotate(90) scale(55.7081 282.892)">
<stop stop-color="#4C1D95"/>
<stop offset="1" stop-color="#CD2480" stop-opacity="0.23"/>
</radialGradient>
<radialGradient id="paint37_radial_94_341" cx="0" cy="0" r="1" gradientUnits="userSpaceOnUse" gradientTransform="translate(1072.74 515.649) rotate(90) scale(83.0029 276.975)">
<stop stop-color="#4C1D95"/>
<stop offset="1" stop-color="#CD2480" stop-opacity="0.23"/>
</radialGradient>
<radialGradient id="paint38_radial_94_341" cx="0" cy="0" r="1" gradientUnits="userSpaceOnUse" gradientTransform="translate(1060.28 558.279) rotate(90) scale(109.625 269.274)">
<stop stop-color="#4C1D95"/>
<stop offset="1" stop-color="#CD2480" stop-opacity="0.23"/>
</radialGradient>
<radialGradient id="paint39_radial_94_341" cx="0" cy="0" r="1" gradientUnits="userSpaceOnUse" gradientTransform="translate(1044.73 599.589) rotate(90) scale(135.338 259.007)">
<stop stop-color="#4C1D95"/>
<stop offset="1" stop-color="#CD2480" stop-opacity="0.23"/>
</radialGradient>
<radialGradient id="paint40_radial_94_341" cx="0" cy="0" r="1" gradientUnits="userSpaceOnUse" gradientTransform="translate(1025.76 639.053) rotate(90) scale(160.142 246.794)">
<stop stop-color="#4C1D95"/>
<stop offset="1" stop-color="#CD2480" stop-opacity="0.23"/>
</radialGradient>
<radialGradient id="paint41_radial_94_341" cx="0" cy="0" r="1" gradientUnits="userSpaceOnUse" gradientTransform="translate(1003.55 676.757) rotate(90) scale(183.363 232.582)">
<stop stop-color="#4C1D95"/>
<stop offset="1" stop-color="#CD2480" stop-opacity="0.23"/>
</radialGradient>
<radialGradient id="paint42_radial_94_341" cx="0" cy="0" r="1" gradientUnits="userSpaceOnUse" gradientTransform="translate(978.312 712) rotate(90) scale(205.235 216.478)">
<stop stop-color="#4C1D95"/>
<stop offset="1" stop-color="#CD2480" stop-opacity="0.23"/>
</radialGradient>
<radialGradient id="paint43_radial_94_341" cx="0" cy="0" r="1" gradientUnits="userSpaceOnUse" gradientTransform="translate(950.263 744.545) rotate(90) scale(225.465 198.646)">
<stop stop-color="#4C1D95"/>
<stop offset="1" stop-color="#CD2480" stop-opacity="0.23"/>
</radialGradient>
<radialGradient id="paint44_radial_94_341" cx="0" cy="0" r="1" gradientUnits="userSpaceOnUse" gradientTransform="translate(919.763 774.538) rotate(90) scale(243.907 179.111)">
<stop stop-color="#4C1D95"/>
<stop offset="1" stop-color="#CD2480" stop-opacity="0.23"/>
</radialGradient>
<radialGradient id="paint45_radial_94_341" cx="0" cy="0" r="1" gradientUnits="userSpaceOnUse" gradientTransform="translate(886.684 801.101) rotate(90) scale(260.502 158.36)">
<stop stop-color="#4C1D95"/>
<stop offset="1" stop-color="#CD2480" stop-opacity="0.23"/>
</radialGradient>
<radialGradient id="paint46_radial_94_341" cx="0" cy="0" r="1" gradientUnits="userSpaceOnUse" gradientTransform="translate(851.637 824.821) rotate(90) scale(274.546 136.231)">
<stop stop-color="#4C1D95"/>
<stop offset="1" stop-color="#CD2480" stop-opacity="0.23"/>
</radialGradient>
<radialGradient id="paint47_radial_94_341" cx="0" cy="0" r="1" gradientUnits="userSpaceOnUse" gradientTransform="translate(814.81 844.553) rotate(90) scale(286.831 112.968)">
<stop stop-color="#4C1D95"/>
<stop offset="1" stop-color="#CD2480" stop-opacity="0.23"/>
</radialGradient>
<radialGradient id="paint48_radial_94_341" cx="0" cy="0" r="1" gradientUnits="userSpaceOnUse" gradientTransform="translate(776.501 860.883) rotate(90) scale(296.77 88.8124)">
<stop stop-color="#4C1D95"/>
<stop offset="1" stop-color="#CD2480" stop-opacity="0.23"/>
</radialGradient>
<radialGradient id="paint49_radial_94_341" cx="0" cy="0" r="1" gradientUnits="userSpaceOnUse" gradientTransform="translate(737.19 873.286) rotate(90) scale(304.129 63.9816)">
<stop stop-color="#4C1D95"/>
<stop offset="1" stop-color="#CD2480" stop-opacity="0.23"/>
</radialGradient>
<radialGradient id="paint50_radial_94_341" cx="0" cy="0" r="1" gradientUnits="userSpaceOnUse" gradientTransform="translate(695.414 881.817) rotate(90) scale(309.143 39.7788)">
<stop stop-color="#4C1D95"/>
<stop offset="1" stop-color="#CD2480" stop-opacity="0.23"/>
</radialGradient>
<radialGradient id="paint51_radial_94_341" cx="0" cy="0" r="1" gradientUnits="userSpaceOnUse" gradientTransform="translate(647.623 886.42) rotate(90) scale(311.635 20.9384)">
<stop stop-color="#4C1D95"/>
<stop offset="1" stop-color="#CD2480" stop-opacity="0.23"/>
</radialGradient>
<radialGradient id="paint52_radial_94_341" cx="0" cy="0" r="1" gradientUnits="userSpaceOnUse" gradientTransform="translate(606.496 887.065) rotate(90) scale(311.635 20.9427)">
<stop stop-color="#4C1D95"/>
<stop offset="1" stop-color="#CD2480" stop-opacity="0.23"/>
</radialGradient>
<radialGradient id="paint53_radial_94_341" cx="0" cy="0" r="1" gradientUnits="userSpaceOnUse" gradientTransform="translate(572.295 883.664) rotate(90) scale(309.172 39.7349)">
<stop stop-color="#4C1D95"/>
<stop offset="1" stop-color="#CD2480" stop-opacity="0.23"/>
</radialGradient>
<radialGradient id="paint54_radial_94_341" cx="0" cy="0" r="1" gradientUnits="userSpaceOnUse" gradientTransform="translate(532.921 876.305) rotate(90) scale(304.041 63.9816)">
<stop stop-color="#4C1D95"/>
<stop offset="1" stop-color="#CD2480" stop-opacity="0.23"/>
</radialGradient>
<radialGradient id="paint55_radial_94_341" cx="0" cy="0" r="1" gradientUnits="userSpaceOnUse" gradientTransform="translate(493.101 864.9) rotate(90) scale(296.682 88.8394)">
<stop stop-color="#4C1D95"/>
<stop offset="1" stop-color="#CD2480" stop-opacity="0.23"/>
</radialGradient>
<radialGradient id="paint56_radial_94_341" cx="0" cy="0" r="1" gradientUnits="userSpaceOnUse" gradientTransform="translate(454.404 849.772) rotate(90) scale(286.831 112.995)">
<stop stop-color="#4C1D95"/>
<stop offset="1" stop-color="#CD2480" stop-opacity="0.23"/>
</radialGradient>
<radialGradient id="paint57_radial_94_341" cx="0" cy="0" r="1" gradientUnits="userSpaceOnUse" gradientTransform="translate(417.095 830.949) rotate(90) scale(274.693 136.204)">
<stop stop-color="#4C1D95"/>
<stop offset="1" stop-color="#CD2480" stop-opacity="0.23"/>
</radialGradient>
<radialGradient id="paint58_radial_94_341" cx="0" cy="0" r="1" gradientUnits="userSpaceOnUse" gradientTransform="translate(381.318 808.548) rotate(90) scale(260.326 158.36)">
<stop stop-color="#4C1D95"/>
<stop offset="1" stop-color="#CD2480" stop-opacity="0.23"/>
</radialGradient>
<radialGradient id="paint59_radial_94_341" cx="0" cy="0" r="1" gradientUnits="userSpaceOnUse" gradientTransform="translate(348.137 782.776) rotate(90) scale(243.878 179.219)">
<stop stop-color="#4C1D95"/>
<stop offset="1" stop-color="#CD2480" stop-opacity="0.23"/>
</radialGradient>
<radialGradient id="paint60_radial_94_341" cx="0" cy="0" r="1" gradientUnits="userSpaceOnUse" gradientTransform="translate(316.313 753.869) rotate(90) scale(225.465 198.457)">
<stop stop-color="#4C1D95"/>
<stop offset="1" stop-color="#CD2480" stop-opacity="0.23"/>
</radialGradient>
<radialGradient id="paint61_radial_94_341" cx="0" cy="0" r="1" gradientUnits="userSpaceOnUse" gradientTransform="translate(287.587 721.997) rotate(90) scale(205.264 216.37)">
<stop stop-color="#4C1D95"/>
<stop offset="1" stop-color="#CD2480" stop-opacity="0.23"/>
</radialGradient>
<radialGradient id="paint62_radial_94_341" cx="0" cy="0" r="1" gradientUnits="userSpaceOnUse" gradientTransform="translate(261.618 687.313) rotate(90) scale(183.48 232.555)">
<stop stop-color="#4C1D95"/>
<stop offset="1" stop-color="#CD2480" stop-opacity="0.23"/>
</radialGradient>
<radialGradient id="paint63_radial_94_341" cx="0" cy="0" r="1" gradientUnits="userSpaceOnUse" gradientTransform="translate(238.407 650.517) rotate(90) scale(159.995 246.686)">
<stop stop-color="#4C1D95"/>
<stop offset="1" stop-color="#CD2480" stop-opacity="0.23"/>
</radialGradient>
<radialGradient id="paint64_radial_94_341" cx="0" cy="0" r="1" gradientUnits="userSpaceOnUse" gradientTransform="translate(218.525 611.493) rotate(90) scale(135.338 259.007)">
<stop stop-color="#4C1D95"/>
<stop offset="1" stop-color="#CD2480" stop-opacity="0.23"/>
</radialGradient>
<radialGradient id="paint65_radial_94_341" cx="0" cy="0" r="1" gradientUnits="userSpaceOnUse" gradientTransform="translate(201.85 570.651) rotate(90) scale(109.625 269.139)">
<stop stop-color="#4C1D95"/>
<stop offset="1" stop-color="#CD2480" stop-opacity="0.23"/>
</radialGradient>
<radialGradient id="paint66_radial_94_341" cx="0" cy="0" r="1" gradientUnits="userSpaceOnUse" gradientTransform="translate(188.638 528.402) rotate(90) scale(82.9736 277.11)">
<stop stop-color="#4C1D95"/>
<stop offset="1" stop-color="#CD2480" stop-opacity="0.23"/>
</radialGradient>
<radialGradient id="paint67_radial_94_341" cx="0" cy="0" r="1" gradientUnits="userSpaceOnUse" gradientTransform="translate(178.942 484.956) rotate(90) scale(55.7614 282.865)">
<stop stop-color="#4C1D95"/>
<stop offset="1" stop-color="#CD2480" stop-opacity="0.23"/>
</radialGradient>
<radialGradient id="paint68_radial_94_341" cx="0" cy="0" r="1" gradientUnits="userSpaceOnUse" gradientTransform="translate(172.864 436.7) rotate(90) scale(32.1252 286.296)">
<stop stop-color="#4C1D95"/>
<stop offset="1" stop-color="#CD2480" stop-opacity="0.23"/>
</radialGradient>
<radialGradient id="paint69_radial_94_341" cx="0" cy="0" r="1" gradientUnits="userSpaceOnUse" gradientTransform="translate(170.458 381.378) rotate(90) scale(14.911 287.458)">
<stop stop-color="#4C1D95"/>
<stop offset="1" stop-color="#CD2480" stop-opacity="0.23"/>
</radialGradient>
</defs>
</svg>
